<?xml version="1.0" encoding="UTF-8"?>
<svg id="Ebene_3" data-name="Ebene 3" xmlns="http://www.w3.org/2000/svg" viewBox="0 0 566.93 566.93">
  <defs>
    <style>
      .cls-1 {
        fill: #e30b17;
      }
    </style>
  </defs>
  <path class="cls-1" d="m245.43,488.22c12.91,0,13.03-9.63,13.93-14.46,2.13-11.43-2.51-43.19-3.07-49.83-.21-2.51,1.23-10.04.54-18.85-1.14-14.48-3.74-30.45-5.28-35.13-1.15-3.48-2.42-7.91-3.99-11.72l-3.59-11.33s-3.73.49-5.76.1c-2.03-.4-3.43.31-4.83-.04-1.65-.42-3.13-2.19-4.45-2.45-1.31-.26-4.58,3.5-5.86,4.32-2.28,1.45-9.76,2.38-7.09,5.75,1.53,2.26,3.24-1.12,6.5-1.2,3.26-.08,3.52,2.01,4.45,3.17.93,1.16,2.6,2.38,4.23,2.44,11.09.37,13.39,4.95,14.56,7.23,1.3,8.74-15.17,20.86-26.76,19.66-2.98-.45-4.97-4.34-7.45-3.83-4.54,1.08-12.1,1.29-16.34-3.5-4.24-4.79-1.95-4.85-3.28-5.98-1.33-1.13-3.7.95-5.35-2.3-1.66-3.25.38-3.51.14-6.15-.27-3.1-2.28-3.17-4.61-2.91-2.33.26-6.21-.46-6.5-5.45-.09-1.5,1.79-4.62-.78-5.35-1.47-.43-3.71,2.51-5.25,3.51-1.54,1.01-6.23-.52-8.45-.15-12.14,1.23-14.14-7.48-15.65-8.39-1.51-.9-3.56,1.85-6.48-.86-2.61-2.42-1.3-4.37-.16-9.18,1.14-4.81.32-5.99-2.77-6.07-3.09-.08-3.88,3.87-11.74,2.56-7.85-1.3-13.21,0-14-9.35-.39-3.07-2-7.83-4.51-7.12-2.5.71-16.55,3.26-13.46-6.24,1.94-5.43,8.73-6.27,13.3-6.23s6.68,3.18,11.6,1.04c4.91-2.14,9.28-.07,10.82-2.75,1.54-2.68-3.27-2.3-1.43-5.5,1.85-3.2,7.82-1.14,6.15-4.21s-13.49,2.49-14.22-6.68c1.1-8.93,9.05-2.63,11.69-6.55,5.43-9.6,13.99-6.91,17.9-7.88,3.91-.98,2.18-6,9.66-4.4,7.48,1.6,7.91,3.44,14.06.98,6.16-2.46,9.17,1.96,10.44-.67,1.27-2.63-5.06-6.06-11.54-5.81-2.95.02-16.58,1.74-15.65-2.2.93-3.95,1.41-6.93-.6-8.61-2.01-1.69-4.9-1.29-6.86-4.47-1.96-3.18-1.83-4.89,1.83-8.08,1.8-2.11,6.12,2.21,8.32.07,2.2-2.14-2.45-5.19-.12-6.91,5.26-3.18,21.12,3.98,22.01-.24-.98-7.83-.12-8.8,8.68-9.29,4.65-.78,3.63-9.04,6.24-11.37,2.68-2.4,11.92-2.08,14.92-4.28,1.96-1.43,5.26-9.94,7.7-11.25,3.19-1.71,8.56-2.69,13.68-2.5,5.12.19,7.16,4.52,13.46,2.98,6.3-1.54,6.39-5.41,15.29-5.61s19.32,4.89,29.02,8.13c9.7,3.24,17.75-10.16,22.7-9.59,4.95.56,5.38,7.46,10.38,6.34,5-1.12,2.09-8.17,8.98-9.13,6.89-.96,10.5,9.93,12.61,11.78,2.99,2.62,18.66-2.63,19.91,6.2.65,3.68-6.53,4.75-5.41,7.31,1.35,3.06,8.56-.16,10.89.2,4.35.67,5.25,2.89,9.91,2.6,1.94-.12,4.06-7.53,8.96-4.92,10.76,5.87,2.12,11.74,5.54,16.47,3.42,4.73,13.79,1.67,18.83,2.96,2.69.69,4.13,2.57,7.1,2.8,2.35.18,3.58-1.4,6.89-1.4s6.2,5.63,6.2,8.14-2.59,2.02-2.59,5,6.51,5.82,6.51,10.38-5.72,6.2-5.72,8.67-2.57,6-.62,8.74c1.95,2.74,9.45-1.26,13.69.17,4.24,1.43,1.71,3.79,3.05,5.54s3.18.84,6.25.84,3.51,4.56,1.76,7.99c-1.75,3.43-1.29,7.02-9.53,5.65-3.99-.74-7.33,1.32-7.74,2.77s2.33,2.62,2.69,5.45c.36,2.84-1.96,7.17-2.83,8.83-.87,1.66-1.9,2.5-1.96,4.26-.06,1.76,1.12,4.27,3.02,5.25,1.89.98,12.39,5.78,14.82,8.31,1.62,1.69.71,3.55,2.03,4.86,1.28,1.27,3.97,1,4.9,2.2.94,1.22-.85,4.03.16,5.26s3.83.98,5.14,3.67c1.3,2.69-.61,6.02-3.27,6.35s-10.97-2.04-13.71-1.43c-1.71.38-4.19,4.36-7.99,4.63-1.27.09-3.17-1.61-5.21-1.49-1.96.12-3.99,1.94-6.2,2.06-2.21.12-9.55-3.75-9.92-1.32-.2,1.35,2.36,2.36,2.77,3.34,1.39,2.93-2.56,7.12-9.73,6.9-8.02.95-16.66,4.98-21.08,5.9-3.4.84-3.26-2.61-6.2-3.14-2.93-.53-5.25,3.18-7.95,2.35-2.7-.83-1.97-3.25-3.79-4.19-3.84-1.99-7.23.23-9.05-.65-1.82-.88-.49-3.65-2.12-3.83-2.93-.33-8.43,2.5-6.33,3.9s11.14.5,7.33,8.82c-5.37,5.89-18.28-.86-20.09,2.27-1.04,2.02,1.23,10.79-2.24,14.39-3.46,3.6-10.57,2.53-14.27,1.9-3.7-.63-3.7,1.86-5.81,2.88-2.11,1.02-3.94-1.11-4.69,1.28-1.14,1.67-2.79,2.42-4.44,1.75-1.65-.67-1.74-2.14-2.68-3.36-.95-1.22-9.2-3.11-12.78-.76-3.9,2.56-6.73,9.17-6.47,13.54.17,2.97,1.64,5.75,1.58,8.78-.07,3.43-1.12,6.3-1,9.75.23,6.45,15.76,52.13,17.73,59.68,1.98,7.55,5.92,7.55,5.92,7.55h79.61c73.37-39.62,123.33-117.24,123.33-206.31,0-129.2-105.11-234.31-234.31-234.31S47.82,152.71,47.82,281.91c0,89.07,49.96,166.69,123.34,206.32,24.76,0,49.51,0,74.27,0Z"/>
  <path class="cls-1" d="m239.48,308.3c-2.56-1.34-6.95,1.95-6.84,4.86s19.97,12.29,19.97,12.29c0,0-10.56-15.8-13.12-17.14Z"/>
  <path class="cls-1" d="m283.45,310.78c-3.3.65-2.07,18.92-2.73,25.19-.66,6.26-.85,31.02,0,36.9,7.88-13.37,9.07-46.92,9.07-51.16s-3.04-11.58-6.34-10.92Z"/>
  <path class="cls-1" d="m270.38,303.21c.25-5.43-1.15-9.49-5-10.41-3.85-.93-3.35,2.93-5.75,5.05-2.88,2.55-7.26-1.52-7.26,3.96.36,3.76,15.07,19.24,15.07,19.24,0,0,2.68-12.4,2.93-17.84Z"/>
  <path class="cls-1" d="m267.79,373.02c.42-3.06-.36-22.85-.91-30.01s-7.77-11.43-7.77-11.43c0,0-1.97,6.03-.62,13.3,1.36,7.27,7.51,20.49,9.3,28.14Z"/>
  <path class="cls-1" d="m293.69,377.65c11.92-.76,15.96-2.69,18.23-4.41s5.4-2.65,4.52-7.44c-.87-4.79-3.83-5.49-8.15-4.67-3.45.66-5.67,2.79-7.54,7.39-1.88,4.6-7.06,9.12-7.06,9.12Z"/>
  <path class="cls-1" d="m312.85,322.37c-1.47,3.85-9.48,25.75-9.48,25.75,0,0,13.97-13.29,17.34-15.57,4.88-3.31,8.79-9.51,7.55-13.05-2.69-6.02-13.94-.99-15.41,2.86Z"/>
  <path class="cls-1" d="m300.38,304.24c-2.37,2.79.49,20.89.49,20.89,0,0,9.05-16.87,9.05-20.54s-7.17-3.14-9.54-.35Z"/>
  <path class="cls-1" d="m349.94,331.07c-2.61-3.65-9.56.34-12.53,1.38-8.92,4.3-16.49,15.68-16.49,15.68,7.57,4.04,11.07,2.31,13.7,1.85,2.62-.46,12.62,4.23,14.84,1.41,3.59-4.57-1.14-4.7-.16-9.83s3.26-6.82.65-10.48Z"/>
  <path class="cls-1" d="m559.83,282.94c0-152.65-124.19-276.84-276.84-276.84S6.15,130.29,6.15,282.94s124.19,276.84,276.84,276.84,276.84-124.19,276.84-276.84Zm-535.33,0C24.5,140.41,140.46,24.45,282.99,24.45s258.49,115.96,258.49,258.49-115.96,258.49-258.49,258.49S24.5,425.47,24.5,282.94Z"/>
</svg>